<?xml version="1.0" encoding="utf-8"?>
<!-- Generator: Adobe Illustrator 22.1.0, SVG Export Plug-In . SVG Version: 6.00 Build 0)  -->
<svg version="1.1" id="Ebene_1" xmlns="http://www.w3.org/2000/svg" xmlns:xlink="http://www.w3.org/1999/xlink" x="0px" y="0px"
	 viewBox="0 0 1366 768" style="enable-background:new 0 0 1366 768;" xml:space="preserve">
<style type="text/css">
	.st0{fill:none;stroke:#000000;stroke-miterlimit:10;}
	.st1{fill-rule:evenodd;clip-rule:evenodd;fill:none;stroke:#000000;stroke-miterlimit:10;}
</style>
<g>
	<line class="st0" x1="-0.5" y1="232.5" x2="321.5" y2="69.5"/>
</g>
<circle class="st1" cx="345.5" cy="72.5" r="21"/>
<line class="st0" x1="-0.5" y1="255.5" x2="330.5" y2="87.5"/>
<line class="st0" x1="340.5" y1="52" x2="340.5" y2="1"/>
<line class="st0" x1="354.5" y1="0.5" x2="354.5" y2="53.5"/>
<line class="st0" x1="108.5" y1="177.5" x2="-0.5" y2="12.5"/>
<line class="st0" x1="129.5" y1="166.5" x2="17.5" y2="1.5"/>
<line class="st0" x1="225.5" y1="140.5" x2="354.5" y2="384.5"/>
<line class="st0" x1="235.5" y1="135.5" x2="364.5" y2="379.5"/>
<path class="st0" d="M-0.5,413.5c368-6.3,736-12.7,1104-19"/>
<path class="st0" d="M-0.5,454.5c368.7-6.3,737.3-12.7,1106-19"/>
<line class="st0" x1="354.5" y1="384.5" x2="345.5" y2="406.5"/>
<line class="st0" x1="364.5" y1="384.5" x2="355.5" y2="406.5"/>
<line class="st0" x1="359.5" y1="87.5" x2="596.5" y2="183.5"/>
<path class="st0" d="M693.9,254.5c-27.1-7-54.2-14-81.4-21c-4.2-1.1-8.4-2.2-12.6-3.2c-0.8-0.2-4.9-1.4-7.3-5.5
	c-1.6-2.7-2.1-5.9-1.3-9.1l12-46.5c1.7-6.4,8.2-10.3,14.6-8.6l93.9,24.3c6.4,1.7,10.3,8.2,8.6,14.6c-0.9,3.5-1.8,7-2.7,10.5
	c-3.1,12-6.2,24-9.3,36C702.6,251.2,697.3,255.4,693.9,254.5z"/>
<path class="st0" d="M637,190.5h10c0.3,0,0.5,0.2,0.5,0.5l0,0c0,0.3-0.2,0.5-0.5,0.5h-10c-0.3,0-0.5-0.2-0.5-0.5l0,0
	C636.5,190.7,636.7,190.5,637,190.5z"/>
<line class="st0" x1="366.5" y1="78.5" x2="603.5" y2="175.5"/>
<path class="st0" d="M648.5,402.5"/>
<path class="st0" d="M561.5,227.5"/>
<line class="st0" x1="730.5" y1="441.5" x2="561.5" y2="768.5"/>
<line class="st0" x1="774.5" y1="441.5" x2="612.5" y2="768.5"/>
<path class="st0" d="M784.5,224.5c21.4-2.8,51.4-10.3,80-31c86.2-62.5,74.9-184.7,74-193"/>
<line class="st0" x1="717.5" y1="209.5" x2="784.5" y2="224.5"/>
<path class="st0" d="M714.5,224.5l70,14c23.4-0.9,55.9-6.1,87-26c62.8-40,94.1-122.8,83-212"/>
<line class="st0" x1="625.5" y1="236.5" x2="625.5" y2="402.5"/>
<line class="st0" x1="636.5" y1="239.5" x2="636.5" y2="402.5"/>
<rect x="-28.5" y="119.5" class="st0" width="16" height="8"/>
<path class="st0" d="M551.5,662.5c0.9,24,10.3,24.9,9,41c-5.3,64.5-160,112.3-285,122c-14.6,1.1-254,17.8-286-71
	c-3.9-10.8,0-10,10-92c11-90.7,8.5-110.6,27-135c22.2-29.3,54.9-39.2,75-45c65.7-19,96.6,8.9,174,17c130.7,13.7,186.4-50.6,288-9
	c35.5,14.6,42,27.9,44,35C618.3,564,548.9,596.5,551.5,662.5z"/>
<line class="st0" x1="696.5" y1="599.5" x2="798.5" y2="589.5"/>
<line class="st0" x1="685.5" y1="620.5" x2="800.5" y2="610.5"/>
<line class="st0" x1="798.5" y1="589.5" x2="789.5" y2="486.5"/>
<line class="st0" x1="806.5" y1="484.5" x2="815.5" y2="586.5"/>
<line class="st0" x1="800.5" y1="610.5" x2="819.5" y2="768.5"/>
</svg>
